<svg width="24" height="25" viewBox="0 0 24 25" fill="none" xmlns="http://www.w3.org/2000/svg">
<g clip-path="url(#clip0_8410_45522)">
<path d="M12 13.1152C12.3398 13.1152 12.6152 12.8398 12.6152 12.5C12.6152 12.1602 12.3398 11.8848 12 11.8848C11.6602 11.8848 11.3848 12.1602 11.3848 12.5C11.3848 12.8398 11.6602 13.1152 12 13.1152Z" fill="#3D91B2"/>
<path d="M11.122 20.1549L14.8719 13.531C15.3629 12.6637 16.2511 12.1458 17.248 12.1458C18.2448 12.1458 19.133 12.6637 19.6241 13.531L19.8972 14.0134C19.9907 13.5196 20.0391 13.0136 20.0391 12.5C20.0391 10.3527 19.2028 8.33392 17.6845 6.81552C16.1661 5.29716 14.1473 4.46094 12 4.46094C9.85271 4.46094 7.83392 5.29716 6.31552 6.81548C4.79716 8.33392 3.96094 10.3527 3.96094 12.5C3.96094 14.6473 4.79716 16.6661 6.31548 18.1845C7.5877 19.4567 9.21131 20.2496 10.9673 20.4734C11.0117 20.3652 11.0632 20.2588 11.122 20.1549ZM8.28809 13.0947C7.94831 13.0947 7.67285 12.8193 7.67285 12.4795C7.67285 12.1397 7.94831 11.8643 8.28809 11.8643H10.2672C10.4563 11.3503 10.8681 10.9434 11.3848 10.7601V8.76758C11.3848 8.4278 11.6602 8.15234 12 8.15234C12.3398 8.15234 12.6152 8.4278 12.6152 8.76758V10.7601C13.3313 11.0141 13.8457 11.6979 13.8457 12.5C13.8457 13.5177 13.0178 14.3457 12 14.3457C11.1904 14.3457 10.5013 13.8214 10.2532 13.0947H8.28809Z" fill="#3D91B2"/>
<path d="M11.1393 22.8752C10.9222 22.5028 10.7991 22.0979 10.7703 21.6886C8.76046 21.4238 6.90295 20.512 5.44546 19.0545C3.69466 17.3037 2.73047 14.976 2.73047 12.5C2.73047 10.024 3.69466 7.69625 5.44542 5.94542C7.19625 4.19466 9.52405 3.23047 12 3.23047C14.4759 3.23047 16.8038 4.19466 18.5546 5.94546C20.3053 7.69625 21.2695 10.024 21.2695 12.5C21.2695 13.551 21.0952 14.5751 20.7613 15.5399L21.5355 16.9075C22.1668 15.5438 22.5 14.0476 22.5 12.5C22.5 9.69535 21.4078 7.05854 19.4246 5.07535C17.4414 3.09221 14.8046 2 12 2C9.19535 2 6.55858 3.09221 4.57535 5.07535C2.59221 7.05854 1.5 9.69535 1.5 12.5C1.5 15.3046 2.59221 17.9415 4.57535 19.9246C6.36814 21.7174 8.69504 22.7818 11.1972 22.9698C11.1774 22.9387 11.158 22.9073 11.1393 22.8752Z" fill="#3D91B2"/>
<path d="M22.3033 20.7618L18.5535 14.138C18.2837 13.6614 17.7958 13.377 17.2482 13.377C16.7006 13.377 16.2126 13.6614 15.9428 14.138L12.193 20.7618C11.9272 21.2314 11.9307 21.79 12.2025 22.2562C12.4743 22.7224 12.9587 23.0007 13.4983 23.0007H20.998C21.5377 23.0007 22.022 22.7224 22.2939 22.2562C22.5656 21.79 22.5692 21.2314 22.3033 20.7618ZM17.8508 21.0043C17.7928 21.2884 17.5381 21.499 17.2475 21.499C16.9909 21.499 16.7546 21.3331 16.6687 21.0912C16.5828 20.8493 16.658 20.5714 16.8574 20.4084C17.0567 20.2455 17.3425 20.2248 17.5636 20.3563C17.7837 20.4873 17.9021 20.7532 17.8508 21.0043ZM17.8634 18.4927C17.8634 18.8324 17.5879 19.1079 17.2482 19.1079C16.9084 19.1079 16.6329 18.8324 16.6329 18.4927V16.5177C16.6329 16.178 16.9084 15.9025 17.2482 15.9025C17.5879 15.9025 17.8634 16.178 17.8634 16.5177V18.4927Z" fill="#3D91B2"/>
</g>
<defs>
<clipPath id="clip0_8410_45522">
<rect width="21" height="21" fill="white" transform="translate(1.5 2)"/>
</clipPath>
</defs>
</svg>
