<svg xmlns="http://www.w3.org/2000/svg" width="24" height="24" viewBox="0 0 24 24">
  <g id="icon_check" data-name="icon/check" transform="translate(-0.231)">
    <path id="楕円形_27" data-name="楕円形 27" d="M12,2.4A9.6,9.6,0,1,0,21.6,12,9.611,9.611,0,0,0,12,2.4M12,0A12,12,0,1,1,0,12,12,12,0,0,1,12,0Z" transform="translate(0.231)" fill="#595959"/>
    <path id="パス_23362" data-name="パス 23362" d="M-12275.008-10615.291c-.039,0-.078,0-.116-.006a1.2,1.2,0,0,1-.894-.544l-2.646-4.108a1.2,1.2,0,0,1,.358-1.659,1.2,1.2,0,0,1,1.659.358l1.826,2.833,6.473-6.725a1.2,1.2,0,0,1,1.7-.033,1.2,1.2,0,0,1,.033,1.7l-7.526,7.818A1.2,1.2,0,0,1-12275.008-10615.291Z" transform="translate(12284.673 10632.331)" fill="#595959"/>
  </g>
</svg>
