<?xml version="1.0" encoding="UTF-8"?><svg id="_圖層_1" xmlns="http://www.w3.org/2000/svg" viewBox="0 0 255.12 56.69"><defs><style>.cls-1{fill:#006c93;}.cls-2{fill:#a1cc56;}</style></defs><polygon class="cls-1" points="2.83 14.06 14.99 14.06 22.51 37.23 22.66 37.23 28.97 14.06 41.43 14.06 48.26 37.23 48.41 37.23 55.33 14.06 66.88 14.06 53.73 50.98 42.49 50.98 34.82 26.44 34.66 26.44 27.83 50.98 16.36 50.98 2.83 14.06"/><rect class="cls-1" x="69.28" y="4.81" width="12.14" height="9.26"/><rect class="cls-2" x="69.28" y="14.06" width="12.14" height="36.92"/><path class="cls-1" d="m107.38,24.92c-1.67-2.05-3.88-3.11-6.61-3.11-1.9,0-4.18.84-4.18,3.04,0,5.47,19.22.83,19.22,14.89,0,9.42-9.12,12.15-17.02,12.15-5.17,0-10.86-1.29-14.51-5.01l6.91-7.67c2.13,2.58,4.63,4.03,8.05,4.03,2.58,0,5.17-.69,5.17-2.66,0-5.92-19.22-.91-19.22-14.96,0-8.66,7.75-12.46,15.5-12.46,4.86,0,10.26,1.22,13.67,4.86l-6.99,6.91Z"/><path class="cls-1" d="m143.71,23.17h-10.03v12.3c0,3.95.46,6.84,5.39,6.84,1.22,0,3.65-.15,4.64-1.06v9.49c-2.51.91-5.32,1.14-7.98,1.14-7.6,0-13.45-3.11-13.45-11.17v-17.55h-7.29v-9.11h7.29V4.81h11.39v9.25h10.03v9.11Z"/><path class="cls-1" d="m147.72,14.06h11.39v5.92h.15c2.43-4.48,5.62-6.84,10.64-6.84,1.29,0,2.74.08,3.8.38v10.41c-1.6-.45-3.19-.76-4.86-.76-8.66,0-9.72,5.02-9.72,12.38v15.42h-11.39V14.06Z"/><path class="cls-1" d="m183.87,32.52c0-5.55,3.42-9.35,9.12-9.35s9.12,3.8,9.12,9.35-3.42,9.34-9.12,9.34-9.12-3.8-9.12-9.34m-11.39,0c0,11.77,9.12,19.37,20.51,19.37s20.51-7.6,20.51-19.37-9.12-19.37-20.51-19.37-20.51,7.6-20.51,19.37"/><path class="cls-1" d="m216.73,14.06h10.94v5.01h.15c1.52-2.89,5.24-5.93,10.78-5.93,11.55,0,13.68,7.6,13.68,17.47v20.36h-11.4v-18.08c0-4.25-.08-9.73-5.93-9.73s-6.84,4.64-6.84,9.42v18.38h-11.39V14.06Z"/></svg>